<svg width="16" height="16" viewBox="0 0 16 16" fill="none" xmlns="http://www.w3.org/2000/svg">
  <g id="uil:heart-alt">
    <!-- Border color for the heart -->
    <path id="Vector" d="M13.4401 3.07329C12.7323 2.3653 11.7939 1.93484 10.7956 1.86021C9.79726 1.78558 8.8053 2.07173 8.0001 2.66662C7.15187 2.03572 6.0961 1.74963 5.04538 1.86598C3.99467 1.98233 3.02706 2.49248 2.33742 3.29368C1.64777 4.09488 1.28732 5.12764 1.32864 6.18397C1.36996 7.2403 1.80998 8.24174 2.5601 8.98662L7.52677 13.9533C7.58874 14.0158 7.66248 14.0654 7.74372 14.0992C7.82496 14.1331 7.91209 14.1505 8.0001 14.1505C8.08811 14.1505 8.17525 14.1331 8.25649 14.0992C8.33773 14.0654 8.41146 14.0158 8.47344 13.9533L13.4401 8.98662C13.8285 8.59844 14.1367 8.13752 14.3469 7.6302C14.5571 7.12288 14.6654 6.57911 14.6654 6.02996C14.6654 5.4808 14.5571 4.93703 14.3469 4.42971C14.1367 3.92239 13.8285 3.46147 13.4401 3.07329Z" stroke="#354231" stroke-width="1.5" fill=""/>
  </g>
</svg>
